# xmcd
#
# Track frame offsets: 
#        150
#        13935
#        26293
#        39866
#        51758
#        64166
#        74604
#        85479
#
# Disc length: 1305 seconds
#
# Revision: 0
# Processed by: cddbd v1.5.1PL2 Copyright (c) Steve Scherf et al.
# Submitted via: ExactAudioCopy v0.95b3
#
DISCID=66051708
DTITLE=The Kendalls - Thank God For The Radio
DYEAR=1900
DGENRE=
TTITLE0=Thank God For The Radio
TTITLE1=Sweet Desire
TTITLE2=Pittsburg Steelers
TTITLE3=Heavens Just A Sin Away
TTITLE4=It Don't Feel Like Sinnin To Me
TTITLE5=I Had A Lovely Time
TTITLE6=You Make An Angel Want To Cheat
TTITLE7=I'm Already Blue
EXTD=
EXTT0=
EXTT1=
EXTT2=
EXTT3=
EXTT4=
EXTT5=
EXTT6=
EXTT7=
PLAYORDER=
